<svg width="16" height="16" viewBox="0 0 16 16" fill="none" xmlns="http://www.w3.org/2000/svg">
<g clip-path="url(#clip0_1_276)">
<path d="M11.745 7.7925C11.6733 8.83459 11.079 9.56619 10.393 9.87625C9.66551 10.2049 8.93021 10.0236 8.56309 9.425C7.96204 8.44481 8.37505 7.76263 8.77444 7.10288C9.22729 6.35478 9.74061 5.50684 9.24828 3.85791C8.85961 2.55613 8.09842 1.46322 6.98582 0.609531C6.63898 0.343437 6.31005 0.143312 6.0431 0C6.41594 0.907562 6.9008 2.59641 6.39433 4.46228C6.07311 5.64581 5.22417 6.54269 4.40316 7.41003C3.32182 8.55247 2.20361 9.73378 2.20361 11.6213C2.20361 13.0855 2.71376 14.2519 3.71984 15.0882C4.48171 15.7214 5.25914 15.968 5.26689 15.97H7.12197L7.08314 15.9692C7.07598 15.9637 6.36924 15.4058 6.35707 14.766C6.3514 14.467 6.50833 14.1802 6.82349 13.9135C7.29689 13.5129 7.55707 13.0816 7.61897 12.5949C7.65682 12.2973 7.61855 11.9826 7.50224 11.643C8.28741 11.9723 9.0996 12.6913 9.37484 13.5838C9.62201 14.3853 9.39336 15.2097 8.71423 15.97H10.7444C12.0743 14.9281 12.8229 13.6796 12.9697 12.2591C13.1568 10.4479 12.3288 8.742 11.745 7.7925Z" fill="black"/>
<path d="M7.12183 15.9697L8.68734 15.9998C8.69643 15.9898 8.70512 15.9797 8.71406 15.9697H7.12183Z" fill="black"/>
</g>
<defs>
<clipPath id="clip0_1_276">
<rect width="15.2" height="16" fill="white"/>
</clipPath>
</defs>
</svg>
