<svg width="25" height="25" viewBox="0 0 25 25" fill="none" xmlns="http://www.w3.org/2000/svg">
<path d="M12.5 24.5221C16.4996 24.5221 20.0572 22.6781 22.3451 19.8115H15.7615C14.9116 22.5904 14.4373 24.5221 12.5 24.5221Z" fill="#67F45B"/>
<path d="M11.7586 24.5009C11.7562 24.5009 11.7541 24.5005 11.7517 24.5005C11.7541 24.5005 11.7565 24.5009 11.7586 24.5009Z" fill="#67F45B"/>
<path d="M15.7615 4.71062H22.3453C20.0571 1.84442 16.4994 0 12.5 0C14.4373 0 14.9116 1.9317 15.7615 4.71062Z" fill="#67F45B"/>
<path d="M11.7517 0.0218778C11.7541 0.0218778 11.7562 0.0215083 11.7586 0.0215083C11.7565 0.0214556 11.7541 0.0214556 11.7517 0.0218778Z" fill="#67F45B"/>
<path d="M22.3454 4.71045H15.7615C17.0902 9.05444 17.0902 15.4679 15.7615 19.8113H22.3448C24.0066 17.7297 25 15.1102 25 12.261C25.0002 9.41201 24.0068 6.79223 22.3454 4.71045Z" fill="#67F45B"/>
<path d="M12.5001 24.5225C12.2514 24.5225 12.0043 24.5152 11.7588 24.501C12.0078 24.5148 12.2554 24.5225 12.5001 24.5225Z" fill="#67F45B"/>
<path d="M11.7588 0.0219033C12.0043 0.00728352 12.2514 0 12.5001 0C12.2554 0 12.0078 0.00807521 11.7588 0.0219033Z" fill="#67F45B"/>
<path d="M16.681 19.8115H2.65527C4.79932 22.4981 8.05912 24.2865 11.7517 24.5007C11.7541 24.5007 11.7562 24.501 11.7586 24.501C12.0041 24.515 12.2513 24.5221 12.5 24.5221C14.4373 24.5221 15.831 22.5904 16.681 19.8115Z" fill="#67F45B"/>
<path d="M2.65527 4.71062H16.6811C15.831 1.9317 14.4373 0 12.5 0C12.2513 0 12.0042 0.00714429 11.7587 0.0214846C11.7563 0.0214846 11.7541 0.021847 11.7518 0.021847C8.05912 0.235813 4.79932 2.02447 2.65527 4.71062Z" fill="#67F45B"/>
<path d="M0 12.261C0 15.1102 0.993356 17.7297 2.65521 19.8113H16.681C18.0097 15.4677 18.0097 9.05418 16.681 4.71045H2.65521C0.993356 6.79223 0 9.41201 0 12.261Z" fill="#67F45B"/>
</svg>
