<svg width="125" height="137" viewBox="0 0 125 137" fill="none" xmlns="http://www.w3.org/2000/svg">
<path d="M124.902 122.732L115.473 61.4347C115.195 59.5491 113.884 58.1749 112.371 58.1749H107.253L106.799 54.6594C106.572 52.9336 105.513 51.5913 104.152 51.3356C103.9 51.2717 103.673 51.2398 103.421 51.2078C103.27 51.1758 103.093 51.1439 102.942 51.1439L101.732 50.9202L101.984 49.4181C102.639 45.583 102.11 41.652 100.496 38.2963L100.194 37.6891L100.395 37.0179C101.202 34.3653 101.051 31.3931 99.9918 28.9003C98.9329 26.4075 97.0419 24.6178 94.8484 24.0105L94.1172 23.8188L93.9912 22.86C92.4784 12.6331 85.4188 5.15461 77.2246 5.09069C77.1489 5.09069 77.0481 5.09069 76.9724 5.12265C76.8716 5.12265 76.7707 5.15461 76.6699 5.15461L76.0143 5.18657L75.6614 4.48347C74.4259 2.05457 72.4341 0.45661 70.1649 0.0730997C67.8958 -0.278451 65.6518 0.648365 63.9878 2.62983L63.3323 3.39686L62.5759 2.78963C60.3571 0.967957 57.7854 0.00918233 55.1633 0.00918233C50.9023 0.0411415 46.9439 2.502 44.3217 6.78453L43.8427 7.55155L43.1115 7.26392C40.2877 6.24122 37.3125 6.84845 34.9173 8.98971C32.5221 11.131 31.0345 14.4867 30.858 18.194L30.8076 19.0888L30.1521 19.4404C27.2778 20.9744 25.4372 24.5219 25.412 28.4529C25.412 29.124 25.4877 29.7951 25.5885 30.4663L25.6894 31.0735L25.412 31.5849C22.689 36.7942 21.9831 43.218 23.4706 49.1624L23.874 50.7923L22.5378 51.016C22.3108 51.048 22.0587 51.08 21.8318 51.1439C21.504 51.2078 21.151 51.2717 20.8233 51.3037C19.4618 51.5593 18.3776 52.9016 18.1507 54.6274L17.6969 58.1429H12.6291C11.1163 58.1429 9.80524 59.5172 9.52789 61.4028L0.0982657 122.732C-0.204289 124.714 0.199117 126.759 1.20763 128.325C2.21615 129.891 3.72893 130.786 5.31734 130.786H50.8267L51.1544 131.489C52.5159 134.334 57.0795 136.251 62.475 136.251C67.8454 136.251 72.3585 134.334 73.7452 131.489L74.073 130.818H119.633C121.221 130.818 122.709 129.923 123.742 128.357C124.801 126.759 125.205 124.714 124.902 122.732ZM25.9415 35.8674L26.597 33.8859L27.782 35.42C28.1855 35.9633 28.6645 36.4107 29.1688 36.8262C29.6478 37.1777 30.2529 36.986 30.5555 36.3787C30.8328 35.8035 30.7067 35.1004 30.3033 34.6849L30.2277 34.621C28.0594 32.9591 27.0004 29.6353 27.6812 26.5353C28.3619 23.4353 30.6059 21.262 33.1272 21.262H33.1524C34.9173 21.262 36.6066 22.3486 37.6655 24.1703C37.8672 24.5219 38.2454 24.7136 38.5984 24.6817C38.9514 24.6178 39.2791 24.3301 39.4052 23.9147C39.5565 23.4992 39.5061 23.0198 39.2791 22.6363C38.0185 20.495 36.0771 19.1208 33.9844 18.8331L32.7238 18.6733L32.9759 17.1073C33.7323 12.665 36.8839 9.40518 40.4641 9.40518H40.4894H40.5146C40.8171 9.43714 41.1197 9.4691 41.4222 9.53302L42.8089 9.82065L42.3047 11.4825C42.1534 11.9939 42.0021 12.5052 41.9013 13.0166C41.7752 13.6877 42.103 14.3589 42.6325 14.5506C43.1619 14.7104 43.7166 14.3269 43.8679 13.6558C44.1452 12.3454 44.5486 11.099 45.1033 9.88457C47.196 5.41028 51.0536 2.62984 55.1381 2.59788C57.4072 2.59788 59.5755 3.46077 61.4665 5.02677L62.2229 5.634L61.9203 6.68865C61.643 7.67938 61.4917 8.73404 61.4917 9.78869C61.4917 10.4918 61.9455 11.0671 62.5002 11.0671C63.0549 11.0671 63.5087 10.4918 63.5087 9.78869C63.5087 5.82575 66.0552 2.59788 69.1564 2.59788C72.2828 2.59788 74.8293 5.82575 74.8293 9.78869C74.8293 10.4918 75.2832 11.0671 75.8379 11.0671C76.3925 11.0671 76.8464 10.4918 76.8464 9.78869C76.8464 9.75673 76.8464 9.69281 76.8212 9.66086C76.796 9.53302 76.796 9.40518 76.796 9.24538L76.7203 7.64743L77.981 7.7433C84.5867 8.25465 90.2596 14.3269 91.7472 22.5084L91.9993 23.8507L90.9656 24.2342C90.0832 24.5538 89.2763 25.0652 88.5452 25.7683C88.2678 26.0559 88.0913 26.5033 88.1418 26.9508C88.1922 27.3982 88.4191 27.8137 88.7469 27.9735C89.0746 28.1652 89.478 28.1013 89.7554 27.8137C91.8985 25.8002 94.8988 25.96 96.8906 28.1972C98.8825 30.4343 99.3867 34.1735 98.0756 37.1138C97.4958 38.4241 96.6133 39.4468 95.5291 40.086C95.1257 40.3417 94.8988 40.9489 94.9997 41.5242C95.1005 42.0994 95.5039 42.5149 95.983 42.5469C96.109 42.5469 96.2603 42.5149 96.4116 42.419C96.8906 42.1314 97.3697 41.7479 97.7983 41.3004L99.0337 40.054L99.5632 41.9396C100.824 46.4459 100.042 51.4635 97.521 55.0109L97.4453 55.1068C94.3441 59.3893 89.2763 60.5399 85.1414 57.9512L85.1162 57.9192C84.7128 57.6316 84.3094 57.344 83.9312 56.9924L83.0235 56.1615L83.6791 55.0109C85.0154 52.614 85.2171 49.514 84.1581 46.8933C84.0068 46.4778 83.6791 46.2222 83.3009 46.1902C82.9479 46.1582 82.5949 46.382 82.3932 46.7655C82.1915 47.149 82.1663 47.6603 82.3428 48.0438C83.3009 50.4727 82.6958 53.4769 80.9309 55.0109C79.8719 55.9058 78.6113 56.1615 77.4011 55.778C76.1908 55.3944 75.1823 54.3718 74.6024 52.9655C74.4259 52.5181 74.0982 52.2624 73.7452 52.2305C73.3922 52.1985 73.0392 52.4222 72.8375 52.8058C72.6358 53.1893 72.6106 53.6687 72.7871 54.0841C73.8713 56.8326 76.0396 58.5584 78.46 58.5584H78.4852C79.2668 58.5584 80.0232 58.3667 80.7544 57.9831L81.4099 57.6635L81.9394 58.2388C82.6453 59.0058 83.4017 59.677 84.2338 60.2203C87.0576 62.0739 90.2849 62.4574 93.3104 61.2749L96.5629 60.0285L94.5458 63.5121C92.2262 67.507 88.8225 70.1596 84.9649 70.9586C84.4607 71.0544 84.0825 71.6617 84.1077 72.3328C84.1581 73.004 84.5867 73.5153 85.1162 73.5153C85.1666 73.5153 85.2171 73.5153 85.2927 73.5153C86.5029 73.2596 87.6879 72.8122 88.8477 72.205L89.7806 71.6936L90.2849 72.8122C90.9908 74.3782 91.5455 76.0401 91.9741 77.7659C92.075 78.1813 92.1254 78.6288 92.1506 79.0762C92.1506 80.834 91.3186 82.4319 90.0579 83.1031L90.0327 83.135C89.6041 83.3268 89.1755 83.4546 88.7469 83.4546C87.6879 83.4546 86.6794 82.8474 85.9735 81.7927C84.4355 79.5236 82.4436 77.8298 80.1997 76.9349C75.6866 75.0174 73.3418 73.0998 72.3333 70.5431L71.6021 68.7214L73.1905 68.4658C74.2494 68.306 75.2832 68.0183 76.3169 67.6348C76.6447 67.507 76.922 67.1554 76.9977 66.708C77.0733 66.2606 76.9724 65.7812 76.6951 65.4616C76.4178 65.142 76.0396 65.0461 75.7118 65.174C74.4259 65.6853 73.0897 65.9729 71.7282 66.1008C69.1564 66.3565 66.5091 65.8451 64.1139 64.6306C63.7105 64.4389 63.2566 64.5667 62.9793 64.9822C59.4243 70.1596 53.474 71.0225 49.087 66.9956C44.7251 62.9688 43.5149 55.5223 46.2883 49.6418C46.49 49.2583 46.49 48.7469 46.3135 48.3315C46.137 47.916 45.8093 47.6603 45.4311 47.6603C45.0781 47.6603 44.7251 47.884 44.5486 48.2995C44.0948 49.2902 43.7166 50.3769 43.4141 51.4954L43.1619 52.5501L42.2795 52.4862C40.0103 52.3264 38.195 49.9614 38.1446 47.0531V46.9572C38.1446 46.6376 38.0437 46.2861 37.842 46.0624C37.6655 45.8386 37.3882 45.7108 37.136 45.7108C36.5561 45.7108 36.1023 46.318 36.1023 47.0211C36.1023 51.1439 38.548 54.5635 41.7752 55.0109L42.7837 55.1388V56.4171C42.7837 57.2481 42.8594 58.079 42.9602 58.91L43.1367 60.2522L42.0778 60.5399C36.8335 61.978 31.4631 59.6131 28.0342 54.3718C24.6304 49.2583 23.8236 42.0994 25.9415 35.8674ZM50.8014 128.166H5.31734C4.33404 128.166 3.40116 127.622 2.77083 126.631C2.14051 125.673 1.88838 124.426 2.09009 123.212L11.6962 60.7316H17.3943L10.4356 113.848C10.2591 115.222 10.6625 116.596 11.4945 117.523C12.3265 118.45 13.4611 118.738 14.5201 118.322C26.118 113.56 38.5984 112.569 50.5997 115.414L51.6082 115.669L50.8014 128.166ZM72.0559 130.147C71.1987 131.841 67.3915 133.631 62.5002 133.631C57.6089 133.631 53.8018 131.873 52.9445 130.147L52.7428 129.732L53.6253 116.245L54.9111 116.66C57.3316 117.427 59.7016 118.45 61.996 119.664L62.0464 119.696C62.1725 119.792 62.349 119.824 62.5002 119.824C62.6515 119.824 62.8028 119.792 62.9288 119.696L62.9793 119.664C65.2736 118.418 67.6689 117.395 70.0641 116.628L71.35 116.213L72.2324 129.732L72.0559 130.147ZM64.9963 115.861L63.5087 116.5V80.4504C63.5087 79.7793 63.1306 79.1721 62.6011 79.1082C61.996 79.0442 61.4665 79.6195 61.4665 80.3865V116.532L59.9789 115.893C45.1285 109.597 28.7653 109.597 13.9149 115.861C13.7889 115.925 13.6628 115.925 13.562 115.925C12.8812 115.925 12.3265 115.158 12.4526 114.263L20.3442 53.9882L21.151 53.8284C21.9579 53.6687 22.8151 53.5408 23.6219 53.413L24.933 53.1893L25.3112 53.9882C29.0427 61.5306 36.1275 65.174 42.935 63.0647L43.7922 62.809L44.1957 63.7997C45.9858 68.0822 49.2887 71.1184 53.0454 71.9493C56.8021 72.7483 60.7353 71.2782 63.534 67.9544L64.013 67.3791L64.6433 67.6029C66.03 68.1142 67.442 68.4338 68.8791 68.5616L69.6859 68.6255L69.8876 69.6163C70.8205 74.0586 73.4931 76.7751 79.4937 79.3319C81.3847 80.0669 83.074 81.5051 84.3598 83.4226C85.444 85.0526 87.0324 86.0113 88.6964 86.0113C89.4276 86.0113 90.1336 85.8196 90.7891 85.468C92.8062 84.3814 94.1172 81.8567 94.1172 79.0762C94.1172 78.3411 94.0164 77.638 93.8399 76.9349C93.3861 75.0813 92.7557 73.3235 92.0246 71.6297L91.5203 70.5111L92.3523 69.7441C95.7813 66.6121 98.1765 62.01 99.059 56.7687L99.1094 56.4171L99.2859 56.1295C99.7145 55.4903 100.093 54.8192 100.42 54.1161L100.799 53.3171L102.009 53.5089C102.564 53.6047 103.169 53.7006 103.749 53.8284L104.555 53.9882L112.447 114.231C112.573 115.286 111.766 116.181 110.959 115.829C103.522 112.697 95.7308 111.099 87.9401 111.099C80.2249 111.163 72.4341 112.729 64.9963 115.861ZM122.204 126.663C121.574 127.622 120.641 128.197 119.658 128.197H74.199L73.3922 115.669L74.4007 115.414C86.4021 112.537 98.9077 113.56 110.506 118.354C111.539 118.77 112.674 118.45 113.531 117.523C114.363 116.596 114.767 115.222 114.59 113.848L107.631 60.7636H113.355L122.961 123.244C123.087 124.458 122.835 125.705 122.204 126.663Z" fill="black"/>
</svg>
