<svg width="27" height="27" viewBox="0 0 27 27" fill="none" xmlns="http://www.w3.org/2000/svg">
<path d="M13.5001 0C9.03376 0 5.4001 3.08861 5.4001 6.885C5.4001 10.6814 9.03376 13.77 13.5001 13.77C17.9664 13.77 21.6001 10.6814 21.6001 6.885C21.6001 3.08861 17.9664 0 13.5001 0ZM13.5001 12.24C10.0263 12.24 7.2001 9.83775 7.2001 6.885C7.2001 3.93225 10.0263 1.53 13.5001 1.53C16.9739 1.53 19.8001 3.93225 19.8001 6.885C19.8001 9.83775 16.9739 12.24 13.5001 12.24Z" fill="#14A1DB"/>
<path d="M23.578 18.2679C21.3604 16.354 18.4205 15.3 15.3 15.3H11.7C8.57952 15.3 5.63964 16.354 3.42204 18.2679C1.2153 20.1724 0 22.6864 0 25.347C0 25.7694 0.40296 26.112 0.9 26.112H26.1C26.597 26.112 27 25.7694 27 25.347C27 22.6864 25.7847 20.1724 23.578 18.2679ZM1.8396 24.582C2.2905 20.2426 6.54066 16.83 11.7 16.83H15.3C20.4593 16.83 24.7095 20.2426 25.1604 24.582H1.8396Z" fill="#14A1DB"/>
</svg>
