<svg width="24" height="24" viewBox="0 0 24 24" fill="none" xmlns="http://www.w3.org/2000/svg">
<path fill-rule="evenodd" clip-rule="evenodd" d="M3.60001 11.9999C3.60001 11.5029 4.00295 11.0999 4.50001 11.0999L17.2655 11.0999L12.2762 6.3487C11.9179 6.00418 11.9067 5.43445 12.2513 5.07615C12.5958 4.71786 13.1655 4.70669 13.5238 5.0512L20.1238 11.3512C20.3003 11.5209 20.4 11.7551 20.4 11.9999C20.4 12.2448 20.3003 12.479 20.1238 12.6487L13.5238 18.9487C13.1655 19.2932 12.5958 19.282 12.2513 18.9237C11.9067 18.5655 11.9179 17.9957 12.2762 17.6512L17.2655 12.8999L4.50001 12.8999C4.00295 12.8999 3.60001 12.497 3.60001 11.9999Z" fill="white"/>
</svg>
