<svg width="5" height="11" viewBox="0 0 5 11" fill="none" xmlns="http://www.w3.org/2000/svg">
<path d="M4.79069 1.90852L2.1079 10.1325C2.02578 10.4101 1.8889 10.6183 1.69727 10.7571C1.53302 10.8959 1.31401 11 1.09501 11C0.958134 11 0.793882 10.9653 0.68438 10.8959C0.410626 10.7571 0.191628 10.4795 0.0821262 10.1325C-0.0273754 9.78548 -0.0273754 9.40378 0.0821262 9.05678L2.76491 0.867507C2.92916 0.312303 3.36717 0 3.77781 0C3.91468 0 4.05156 0.0347004 4.18844 0.104101C4.46219 0.242902 4.68119 0.520504 4.79069 0.867507C4.90019 1.17981 4.90019 1.56151 4.79069 1.90852Z" fill="black"/>
</svg>
