<svg width="33" height="23" viewBox="0 0 33 23" fill="none" xmlns="http://www.w3.org/2000/svg">
<path d="M30.9289 13.7949V6.29101L31.2954 6.19755C32.7042 5.83816 32.9999 5.22972 32.9999 4.78256C32.9998 4.33541 32.7041 3.72697 31.2953 3.36774L19.24 0.293593C18.4975 0.104256 17.5244 0 16.5001 0C15.4757 0 14.5027 0.104256 13.76 0.293593L1.70472 3.36774C0.295774 3.72697 0 4.33541 0 4.78262C0 5.22977 0.29571 5.83827 1.70465 6.19761L6.21333 7.34732V13.5423C6.21333 14.3115 6.80159 15.3951 9.60407 16.1892C11.4603 16.7151 13.9093 17.0047 16.4999 17.0047C19.0905 17.0047 21.5395 16.7151 23.3958 16.1892C26.1983 15.3951 26.7866 14.3115 26.7866 13.5423V7.34738L28.9952 6.78413V13.7949C27.7929 14.139 26.9242 15.1057 26.9242 16.2423V19.7631C26.9242 21.1869 28.2869 22.3453 29.962 22.3453C31.6371 22.3453 32.9999 21.1869 32.9999 19.7631V16.2423C33 15.1057 32.1312 14.139 30.9289 13.7949ZM14.3156 1.86784C14.8747 1.72523 15.6709 1.64349 16.5001 1.64349C17.3291 1.64349 18.1253 1.72523 18.6844 1.86778L30.1149 4.78262L25.5372 5.94998C25.5346 5.95069 25.532 5.95129 25.5294 5.952L18.6845 7.69751C18.1254 7.84006 17.3293 7.9218 16.5001 7.9218C15.671 7.9218 14.8748 7.84006 14.3157 7.69751L7.4708 5.952C7.46816 5.95129 7.46558 5.95069 7.46294 5.94998L2.88524 4.78262L14.3156 1.86784ZM24.8531 11.3842C24.8531 13.6482 24.502 14.1432 22.7844 14.6299C21.1201 15.1015 18.8883 15.3611 16.5 15.3611C14.1117 15.3611 11.8798 15.1015 10.2156 14.6299C8.49805 14.1432 8.14691 13.6481 8.14691 13.5422V7.84033L13.7601 9.2717C14.5026 9.46104 15.4757 9.56529 16.5001 9.56529C17.5244 9.56529 18.4974 9.46104 19.24 9.2717L24.8531 7.84033V11.3842ZM31.0664 19.763C31.0664 20.2806 30.571 20.7017 29.9621 20.7017C29.3532 20.7017 28.8578 20.2806 28.8578 19.763V16.2422C28.8578 15.7246 29.3532 15.3035 29.9621 15.3035C30.5711 15.3035 31.0664 15.7246 31.0664 16.2422V19.763Z" fill="#14A1DB"/>
</svg>
