<svg width="8" height="5" viewBox="0 0 8 5" fill="none" xmlns="http://www.w3.org/2000/svg">
<path d="M4.3564 4.35631L7.58158 1.13113C7.77836 0.934357 7.77836 0.615225 7.58158 0.418449C7.38476 0.221633 7.06571 0.221633 6.8689 0.418449L4.504 2.78335C4.504 2.78335 4.26602 3.04986 4.00198 3.04427C3.74429 3.03881 3.49613 2.78335 3.49613 2.78335L1.13123 0.418529C0.934411 0.221713 0.615361 0.221713 0.418544 0.418529C0.320217 0.516897 0.270952 0.645904 0.270952 0.774871C0.270952 0.903838 0.320217 1.03281 0.418544 1.13121L3.64372 4.35631C3.84054 4.55312 4.15959 4.55312 4.3564 4.35631Z" fill="black" stroke="black" stroke-width="0.5"/>
</svg>
