<svg width="300" height="40" viewBox="0 0 300 40" fill="none" xmlns="http://www.w3.org/2000/svg">
<rect width="300" height="40" rx="8" fill="#E5E5E5"/>
<path d="M29.5061 13.0893C26.3764 9.95964 21.2826 9.95964 18.1529 13.0893C15.0239 16.2197 15.0239 21.3128 18.1529 24.4432C20.94 27.2296 25.2807 27.5281 28.4083 25.3523C28.4741 25.6637 28.6248 25.9609 28.867 26.2031L33.4248 30.7609C34.089 31.4237 35.1623 31.4237 35.8231 30.7609C36.4866 30.0974 36.4866 29.0241 35.8231 28.3626L31.2653 23.8034C31.0244 23.5632 30.7266 23.4119 30.4152 23.3461C32.5923 20.2178 32.2938 15.8778 29.5061 13.0893ZM28.0671 23.0042C25.7305 25.3408 21.9278 25.3408 19.5919 23.0042C17.2567 20.6676 17.2567 16.8656 19.5919 14.529C21.9278 12.1931 25.7305 12.1931 28.0671 14.529C30.4037 16.8656 30.4037 20.6676 28.0671 23.0042Z" fill="black"/>
</svg>
