<svg width="31" height="26" viewBox="0 0 31 26" fill="none" xmlns="http://www.w3.org/2000/svg">
<path d="M16.2539 26H14.3342C12.7816 26 11.5183 24.9263 11.5183 23.6065V23.0545C10.8582 22.8752 10.2169 22.6489 9.60076 22.3779L9.1405 22.7691C8.02577 23.7178 6.24012 23.69 5.15776 22.7688L3.80095 21.6155C2.71668 20.6949 2.68549 19.1776 3.8013 18.2302L4.2612 17.8393C3.94236 17.3156 3.6762 16.7706 3.46525 16.2094H2.81585C1.26326 16.2094 0 15.1357 0 13.8159V12.1841C0 10.8643 1.26326 9.79063 2.81591 9.79063H3.46531C3.67626 9.22949 3.94242 8.68441 4.26126 8.1607L3.80101 7.76953C2.68585 6.82266 2.71662 5.30522 3.80136 4.3842L5.1583 3.23086C6.24317 2.30745 8.0284 2.28439 9.14098 3.23116L9.60082 3.62202C10.2169 3.35105 10.8583 3.12477 11.5184 2.94546V2.39347C11.5184 1.07372 12.7816 0 14.3343 0H16.254C17.8067 0 19.0699 1.07372 19.0699 2.39347V2.94552C19.7299 3.12477 20.3713 3.35105 20.9874 3.62207L21.4477 3.23086C22.5624 2.28216 24.3481 2.30999 25.4304 3.23121L26.7872 4.38445C27.8715 5.30507 27.9027 6.82236 26.7869 7.76979L26.327 8.1607C26.6458 8.68441 26.912 9.22944 27.1229 9.79063H27.7723C29.325 9.79063 30.5882 10.8643 30.5882 12.1841V13.8159C30.5882 15.1357 29.325 16.2094 27.7723 16.2094H27.1229C26.912 16.7705 26.6458 17.3156 26.327 17.8393L26.7872 18.2305C27.9024 19.1774 27.8716 20.6948 26.7869 21.6159L25.4299 22.7692C24.3451 23.6926 22.5598 23.7157 21.4473 22.7689L20.9874 22.378C20.3713 22.649 19.7299 22.8753 19.0699 23.0546V23.6066C19.0699 24.9263 17.8067 26 16.2539 26ZM9.90037 20.7782C10.7563 21.2084 11.6775 21.5335 12.6384 21.7443C13.0342 21.8311 13.3107 22.1344 13.3107 22.4818V23.6065C13.3107 24.0863 13.7699 24.4766 14.3343 24.4766H16.254C16.8184 24.4766 17.2776 24.0863 17.2776 23.6065V22.4818C17.2776 22.1344 17.5541 21.8311 17.9499 21.7443C18.9108 21.5335 19.832 21.2084 20.6879 20.7782C21.0401 20.6011 21.4885 20.6493 21.7778 20.8952L22.715 21.6919C23.1191 22.0358 23.7681 22.0278 24.1623 21.6923L25.52 20.5382C25.9133 20.2044 25.9264 19.6527 25.5204 19.308L24.5827 18.511C24.2934 18.2652 24.2368 17.884 24.445 17.5847C24.9512 16.8572 25.3336 16.0741 25.5816 15.2573C25.6837 14.921 26.0406 14.686 26.4493 14.686H27.7724C28.3368 14.686 28.796 14.2957 28.796 13.816V12.1841C28.796 11.7044 28.3368 11.3141 27.7724 11.3141H26.4493C26.0406 11.3141 25.6837 11.0791 25.5816 10.7428C25.3336 9.92596 24.9512 9.14291 24.445 8.41542C24.2368 8.11611 24.2934 7.73495 24.5827 7.48907L25.52 6.69236C25.9252 6.34837 25.9146 5.79688 25.5204 5.46218L24.1627 4.30818C23.7692 3.97323 23.1202 3.96343 22.7155 4.30788L21.7779 5.10489C21.4886 5.35082 21.04 5.39896 20.688 5.22194C19.832 4.79167 18.9108 4.46662 17.9499 4.25582C17.5542 4.16904 17.2777 3.86567 17.2777 3.51828V2.39347C17.2777 1.91374 16.8185 1.52344 16.2541 1.52344H14.3344C13.77 1.52344 13.3107 1.91374 13.3107 2.39347V3.51818C13.3107 3.86557 13.0342 4.16894 12.6385 4.25572C11.6776 4.46652 10.7564 4.79157 9.90043 5.22184C9.54819 5.39881 9.09982 5.35067 8.81055 5.10479L7.8733 4.30808C7.4692 3.96419 6.82022 3.97216 6.4261 4.30772L5.06833 5.46178C4.6751 5.79561 4.66196 6.34725 5.06797 6.69195L6.00563 7.48897C6.2949 7.73485 6.35154 8.11601 6.14334 8.41532C5.63714 9.14281 5.25478 9.92586 5.00679 10.7427C4.90463 11.079 4.54773 11.314 4.13909 11.314H2.81591C2.25152 11.3141 1.79228 11.7044 1.79228 12.1841V13.8159C1.79228 14.2956 2.25152 14.6859 2.81591 14.6859H4.13903C4.54773 14.6859 4.90457 14.921 5.00673 15.2573C5.25472 16.0741 5.63714 16.8571 6.14328 17.5846C6.35148 17.8839 6.29484 18.2651 6.00557 18.511L5.06827 19.3077C4.66309 19.6517 4.67367 20.2032 5.06791 20.5379L6.42556 21.6919C6.81909 22.0268 7.46813 22.0366 7.87283 21.6922L8.81043 20.8952C9.02359 20.714 9.46706 20.5603 9.90037 20.7782Z" fill="white"/>
<path d="M15.294 18.6568C11.6242 18.6568 8.63867 16.1191 8.63867 12.9998C8.63867 9.88052 11.6242 7.34277 15.294 7.34277C18.9638 7.34277 21.9493 9.88052 21.9493 12.9998C21.9493 16.1191 18.9638 18.6568 15.294 18.6568ZM15.294 8.86621C12.6125 8.86621 10.431 10.7205 10.431 12.9998C10.431 15.2791 12.6125 17.1334 15.294 17.1334C17.9755 17.1334 20.1571 15.2791 20.1571 12.9998C20.1571 10.7205 17.9756 8.86621 15.294 8.86621Z" fill="white"/>
</svg>
