<svg width="31" height="27" viewBox="0 0 31 27" fill="none" xmlns="http://www.w3.org/2000/svg">
<path d="M21.8584 20.1751V22.2338C21.8584 24.5042 19.6855 26.3512 17.0145 26.3512H4.84397C2.17293 26.3512 0 24.5042 0 22.2338V4.11738C0 1.84699 2.17293 0 4.84397 0H17.0145C19.6855 0 21.8584 1.84699 21.8584 4.11738V6.17606C21.8584 6.74462 21.3163 7.20541 20.6474 7.20541C19.9785 7.20541 19.4364 6.74462 19.4364 6.17606V4.11738C19.4364 2.98228 18.3499 2.05869 17.0145 2.05869H4.84397C3.50857 2.05869 2.42199 2.98228 2.42199 4.11738V22.2338C2.42199 23.3689 3.50857 24.2925 4.84397 24.2925H17.0145C18.3499 24.2925 19.4364 23.3689 19.4364 22.2338V20.1751C19.4364 19.6066 19.9785 19.1458 20.6474 19.1458C21.3163 19.1458 21.8584 19.6066 21.8584 20.1751ZM30.1147 11.4074L27.403 9.10246C26.9299 8.70037 26.1631 8.70037 25.6903 9.10246C25.2173 9.50434 25.2173 10.1561 25.6903 10.558L27.6192 12.1977H13.0787C12.4098 12.1977 11.8677 12.6585 11.8677 13.2271C11.8677 13.7956 12.4098 14.2564 13.0787 14.2564H27.6192L25.6903 15.8961C25.2173 16.298 25.2173 16.9498 25.6903 17.3517C25.9268 17.5527 26.2367 17.6532 26.5465 17.6532C26.8566 17.6532 27.1665 17.5527 27.403 17.3517L30.1147 15.0467C31.2952 14.0433 31.2952 12.4108 30.1147 11.4074Z" fill="white"/>
</svg>
