<svg width="32" height="32" viewBox="0 0 32 32" fill="none" xmlns="http://www.w3.org/2000/svg">
<path d="M16 32.0001C21.1194 32.0001 25.6732 29.5938 28.6017 25.853H20.1748C19.0869 29.4794 18.4798 32.0001 16 32.0001Z" fill="#FFAC2F"/>
<path d="M15.0511 31.9726C15.048 31.9726 15.0453 31.9722 15.0422 31.9722C15.0453 31.9722 15.0483 31.9726 15.0511 31.9726Z" fill="#FFAC2F"/>
<path d="M20.1748 6.14709H28.6019C25.6731 2.40686 21.1193 0 16 0C18.4798 0 19.0869 2.52076 20.1748 6.14709Z" fill="#FFAC2F"/>
<path d="M15.0422 0.0283356C15.0453 0.0283356 15.048 0.0278627 15.0511 0.0278627C15.0483 0.0277952 15.0453 0.0277952 15.0422 0.0283356Z" fill="#FFAC2F"/>
<path d="M28.6019 6.14697H20.1746C21.8753 11.8156 21.8753 20.1849 20.1746 25.8527H28.6012C30.7283 23.1364 31.9998 19.718 31.9998 16C32.0001 12.2822 30.7285 8.86358 28.6019 6.14697Z" fill="#FFAC2F"/>
<path d="M15.9999 32.0002C15.6816 32.0002 15.3653 31.9909 15.051 31.9727C15.3698 31.9904 15.6867 32.0002 15.9999 32.0002Z" fill="#FFAC2F"/>
<path d="M15.051 0.0280362C15.3652 0.00932289 15.6816 0 15.9999 0C15.6867 0 15.3698 0.0103362 15.051 0.0280362Z" fill="#FFAC2F"/>
<path d="M21.3516 25.853H3.39868C6.14306 29.3588 10.3156 31.6927 15.0421 31.9721C15.0451 31.9721 15.0479 31.9726 15.0509 31.9726C15.3652 31.9907 15.6815 32.0001 15.9998 32.0001C18.4797 32.0001 20.2635 29.4794 21.3516 25.853Z" fill="#FFAC2F"/>
<path d="M3.39868 6.14709H21.3517C20.2635 2.52076 18.4797 0 15.9999 0C15.6816 0 15.3653 0.00932289 15.051 0.0280362C15.048 0.0280362 15.0452 0.0285091 15.0422 0.0285091C10.3156 0.307723 6.14306 2.64182 3.39868 6.14709Z" fill="#FFAC2F"/>
<path d="M0 16C0 19.718 1.27149 23.1364 3.39867 25.8527H21.3516C23.0524 20.1846 23.0524 11.8153 21.3516 6.14697H3.39867C1.27149 8.86358 0 12.2822 0 16Z" fill="#FFAC2F"/>
</svg>
