<svg width="21" height="23" viewBox="0 0 21 23" fill="none" xmlns="http://www.w3.org/2000/svg">
<path d="M20.9651 1.57351C20.0156 7.81875 16.0382 12.6978 11.1112 13.7387L10.4441 13.8688L10.2131 14.6495C8.80175 19.431 5.15787 22.6186 1.12909 22.6186H1.10343C0.538883 22.6186 0.076984 22.0332 0.076984 21.3176C0.076984 20.602 0.538883 20.0165 1.10343 20.0165C3.59255 20.0165 5.92771 18.4877 7.36473 15.918L8.39117 14.0965L6.67188 13.6411C4.18275 12.9581 1.9759 11.3642 0.256611 8.9572C0.0769832 8.69698 0 8.40424 0 8.07896C0 7.72116 0.128306 7.36336 0.333595 7.10315C0.769833 6.61524 1.41136 6.64777 1.79627 7.20073C5.2092 11.8196 10.675 12.6003 14.8321 9.08731C16.9876 7.20073 18.4503 4.37086 18.9379 1.08561C18.9892 0.630224 19.2458 0.239895 19.6051 0.0772584C19.9643 -0.0853778 20.3492 0.0122049 20.6315 0.337477C20.9394 0.597695 21.0677 1.08561 20.9651 1.57351Z" fill="black"/>
</svg>
