<svg width="97" height="40" viewBox="0 0 97 40" fill="none" xmlns="http://www.w3.org/2000/svg">
<rect x="57.1006" y="39" width="38" height="38" rx="19" transform="rotate(-90 57.1006 39)" stroke="black" stroke-width="2"/>
<path d="M81.4338 19.773H82.641L81.7874 18.9195L78.377 15.5091L78.0235 15.8626L78.377 15.5091C78.2884 15.4205 78.2884 15.277 78.377 15.1884C78.4655 15.0999 78.6091 15.0999 78.6977 15.1884L83.3486 19.8394C83.4372 19.928 83.4372 20.0715 83.3486 20.1601L83.7022 20.5136L83.3486 20.1601L78.6979 24.8109C78.6534 24.8554 78.5961 24.8774 78.5374 24.8774C78.4788 24.8774 78.4215 24.8554 78.3771 24.811C78.2886 24.7225 78.2886 24.579 78.3771 24.4904L78.3771 24.4904L81.7874 21.08L82.6409 20.2265H81.4338H69.0126C68.8875 20.2265 68.7859 20.1249 68.7859 19.9997C68.7859 19.8746 68.8874 19.773 69.0126 19.773H81.4338Z" fill="black" stroke="black"/>
<rect x="39" y="1" width="38" height="38" rx="19" transform="rotate(90 39 1)" stroke="black" stroke-width="2"/>
<path d="M14.6667 20.227L13.4596 20.227L14.3132 21.0805L17.7236 24.4909L18.0771 24.1374L17.7236 24.4909C17.8121 24.5795 17.8121 24.723 17.7236 24.8116C17.6351 24.9001 17.4914 24.9001 17.4029 24.8116L12.752 20.1606C12.6634 20.072 12.6634 19.9285 12.752 19.8399L12.3984 19.4864L12.752 19.8399L17.4027 15.1891C17.4472 15.1446 17.5045 15.1226 17.5631 15.1226C17.6218 15.1226 17.6791 15.1446 17.7235 15.189C17.812 15.2775 17.812 15.421 17.7235 15.5096L17.7235 15.5096L14.3132 18.92L13.4597 19.7735L14.6667 19.7735L27.088 19.7735C27.2131 19.7735 27.3147 19.8751 27.3147 20.0003C27.3147 20.1254 27.2132 20.227 27.088 20.227L14.6667 20.227Z" fill="black" stroke="black"/>
</svg>
