<svg width="31" height="26" viewBox="0 0 31 26" fill="none" xmlns="http://www.w3.org/2000/svg">
<path d="M27.2326 0H3.27744C1.47026 0 0 1.42474 0 3.17597V18.4206C0 20.1719 1.47026 21.5966 3.27744 21.5966H10.9952C11.0894 21.5966 11.1789 21.6404 11.2349 21.7139L14.0507 25.4133C14.3328 25.784 14.7673 25.9979 15.2427 26H15.2499C15.7225 26 16.1562 25.7903 16.4404 25.4239L19.3201 21.7118C19.3761 21.6396 19.4651 21.5965 19.5583 21.5965H27.2326C29.0397 21.5965 30.51 20.1718 30.51 18.4206V3.17591C30.51 1.42468 29.0397 0 27.2326 0ZM28.7223 18.4206C28.7223 18.557 28.7023 18.6889 28.6656 18.814L19.4825 11.0133L28.7223 3.58284V18.4206ZM27.2326 1.73235C27.5051 1.73235 27.7605 1.80395 27.9805 1.92828L16.2089 11.3948C15.6576 11.8381 14.8575 11.8381 14.3062 11.3948L2.53251 1.9266C2.7518 1.80332 3.00619 1.73235 3.27744 1.73235H27.2326ZM1.84437 18.814C1.80772 18.6889 1.7877 18.557 1.7877 18.4206V3.5788L11.03 11.0112L1.84437 18.814ZM17.8912 20.6708L15.2519 24.073L12.6736 20.6857C12.2822 20.1713 11.6546 19.8642 10.9951 19.8642H3.31993L12.423 12.1315L13.1645 12.7278C13.7709 13.2155 14.5141 13.4592 15.2575 13.4592C16.0007 13.4592 16.7442 13.2153 17.3505 12.7278L18.0893 12.1336L27.19 19.8642H19.5583C18.9063 19.8643 18.2831 20.1657 17.8912 20.6708Z" fill="#14A1DB"/>
</svg>
