<svg width="31" height="23" viewBox="0 0 31 23" fill="none" xmlns="http://www.w3.org/2000/svg">
<path d="M27.4641 0H3.3053C1.48276 0 0 1.26035 0 2.80951V16.2952C0 17.8443 1.48276 19.1047 3.3053 19.1047H11.0886C11.1836 19.1047 11.274 19.1434 11.3304 19.2085L14.1701 22.4809C14.4547 22.8089 14.8929 22.9981 15.3723 23H15.3795C15.8562 23 16.2935 22.8144 16.5802 22.4903L19.4844 19.2066C19.5408 19.1427 19.6306 19.1046 19.7246 19.1046H27.4641C29.2866 19.1046 30.7694 17.8443 30.7694 16.2951V2.80946C30.7694 1.26029 29.2866 0 27.4641 0ZM28.9665 16.2952C28.9665 16.4158 28.9463 16.5324 28.9093 16.6431L19.6482 9.74256L28.9665 3.16943V16.2952ZM27.4641 1.53246C27.7389 1.53246 27.9965 1.5958 28.2183 1.70578L16.3467 10.08C15.7907 10.4722 14.9838 10.4722 14.4278 10.08L2.55404 1.7043C2.77519 1.59524 3.03175 1.53246 3.3053 1.53246H27.4641ZM1.86005 16.6431C1.82309 16.5324 1.80289 16.4158 1.80289 16.2952V3.16586L11.1237 9.74067L1.86005 16.6431ZM18.0433 18.2857L15.3816 21.2953L12.7813 18.2988C12.3866 17.8438 11.7537 17.5722 11.0886 17.5722H3.34815L12.5286 10.7317L13.2764 11.2592C13.888 11.6906 14.6375 11.9062 15.3872 11.9062C16.1367 11.9062 16.8865 11.6905 17.498 11.2592L18.2431 10.7336L27.4211 17.5722H19.7246C19.067 17.5722 18.4385 17.8389 18.0433 18.2857Z" fill="white"/>
</svg>
